<svg xmlns="http://www.w3.org/2000/svg" viewBox="0 0 64 64">
  <!-- Car body -->
  <rect x="4" y="28" width="56" height="18" rx="4" fill="#5BA3D0"/>
  <!-- Roof / cabin -->
  <path d="M16 28 L22 14 H42 L48 28Z" fill="#4A8AB8"/>
  <!-- Windows -->
  <path d="M23 16 L19 26 H30 V16Z" fill="#0A0A0A" opacity="0.7"/>
  <path d="M34 16 V26 H45 L41 16Z" fill="#0A0A0A" opacity="0.7"/>
  <!-- Taxi sign on roof -->
  <rect x="26" y="10" width="12" height="6" rx="2" fill="#D2B485"/>
  <!-- Headlights -->
  <rect x="54" y="32" width="6" height="4" rx="1" fill="#D2B485"/>
  <rect x="4" y="32" width="6" height="4" rx="1" fill="#D2B485"/>
  <!-- Wheels -->
  <circle cx="18" cy="46" r="7" fill="#1A1A1A"/>
  <circle cx="18" cy="46" r="4" fill="#2D2D2D"/>
  <circle cx="46" cy="46" r="7" fill="#1A1A1A"/>
  <circle cx="46" cy="46" r="4" fill="#2D2D2D"/>
  <!-- Wheel hub caps -->
  <circle cx="18" cy="46" r="2" fill="#5BA3D0"/>
  <circle cx="46" cy="46" r="2" fill="#5BA3D0"/>
  <!-- Door line -->
  <line x1="32" y1="28" x2="32" y2="44" stroke="#4A8AB8" stroke-width="1.5"/>
</svg>
